<svg xmlns="http://www.w3.org/2000/svg" xmlns:xlink="http://www.w3.org/1999/xlink" width="316pt" height="348pt" viewBox="0.00 0.00 316.00 348.00">
<g id="graph0" class="graph" transform="scale(1 1) rotate(0) translate(4 344.4)">
<title>ER_Scholarships</title>
<polygon fill="white" stroke="none" points="-4,4 -4,-344.4 311.91,-344.4 311.91,4 -4,4"/>
<!-- Scholarships -->
<g id="node1" class="node">
<title>Scholarships</title>
<path fill="#ffffff" stroke="black" d="M105.67,-218.4C105.67,-218.4 12.59,-218.4 12.59,-218.4 6.59,-218.4 0.59,-212.4 0.59,-206.4 0.59,-206.4 0.59,-121.6 0.59,-121.6 0.59,-115.6 6.59,-109.6 12.59,-109.6 12.59,-109.6 105.67,-109.6 105.67,-109.6 111.67,-109.6 117.67,-115.6 117.67,-121.6 117.67,-121.6 117.67,-206.4 117.67,-206.4 117.67,-212.4 111.67,-218.4 105.67,-218.4"/>
<text xml:space="preserve" text-anchor="middle" x="59.13" y="-201.8" font-family="Times,serif" font-size="14.00">Scholarships</text>
<text xml:space="preserve" text-anchor="middle" x="59.13" y="-185" font-family="Times,serif" font-size="14.00">id PK</text>
<text xml:space="preserve" text-anchor="middle" x="59.13" y="-168.2" font-family="Times,serif" font-size="14.00">title</text>
<text xml:space="preserve" text-anchor="middle" x="59.13" y="-151.4" font-family="Times,serif" font-size="14.00">eligibility_criteria</text>
<text xml:space="preserve" text-anchor="middle" x="59.13" y="-134.6" font-family="Times,serif" font-size="14.00">amount</text>
<text xml:space="preserve" text-anchor="middle" x="59.13" y="-117.8" font-family="Times,serif" font-size="14.00">deadline</text>
</g>
<!-- ScholarshipApplications -->
<g id="node2" class="node">
<title>ScholarshipApplications</title>
<path fill="#ffffff" stroke="black" d="M295.91,-157.4C295.91,-157.4 166.26,-157.4 166.26,-157.4 160.26,-157.4 154.26,-151.4 154.26,-145.4 154.26,-145.4 154.26,-60.6 154.26,-60.6 154.26,-54.6 160.26,-48.6 166.26,-48.6 166.26,-48.6 295.91,-48.6 295.91,-48.6 301.91,-48.6 307.91,-54.6 307.91,-60.6 307.91,-60.6 307.91,-145.4 307.91,-145.4 307.91,-151.4 301.91,-157.4 295.91,-157.4"/>
<text xml:space="preserve" text-anchor="middle" x="231.08" y="-140.8" font-family="Times,serif" font-size="14.00">ScholarshipApplications</text>
<text xml:space="preserve" text-anchor="middle" x="231.08" y="-124" font-family="Times,serif" font-size="14.00">id PK</text>
<text xml:space="preserve" text-anchor="middle" x="231.08" y="-107.2" font-family="Times,serif" font-size="14.00">scholarship_id FK</text>
<text xml:space="preserve" text-anchor="middle" x="231.08" y="-90.4" font-family="Times,serif" font-size="14.00">student_id FK</text>
<text xml:space="preserve" text-anchor="middle" x="231.08" y="-73.6" font-family="Times,serif" font-size="14.00">status</text>
<text xml:space="preserve" text-anchor="middle" x="231.08" y="-56.8" font-family="Times,serif" font-size="14.00">awarded_amount</text>
</g>
<!-- Scholarships&#45;&gt;ScholarshipApplications -->
<g id="edge1" class="edge">
<title>Scholarships-&gt;ScholarshipApplications</title>
<path fill="none" stroke="black" d="M118.14,-143.18C126.26,-140.27 134.74,-137.22 143.24,-134.17"/>
<polygon fill="black" stroke="black" points="144.35,-137.49 152.58,-130.82 141.98,-130.9 144.35,-137.49"/>
</g>
<!-- Students -->
<g id="node3" class="node">
<title>Students</title>
<path fill="#ffffff" stroke="black" d="M100.23,-92C100.23,-92 18.03,-92 18.03,-92 12.03,-92 6.03,-86 6.03,-80 6.03,-80 6.03,-12 6.03,-12 6.03,-6 12.03,0 18.03,0 18.03,0 100.23,0 100.23,0 106.23,0 112.23,-6 112.23,-12 112.23,-12 112.23,-80 112.23,-80 112.23,-86 106.23,-92 100.23,-92"/>
<text xml:space="preserve" text-anchor="middle" x="59.13" y="-75.4" font-family="Times,serif" font-size="14.00">Students</text>
<text xml:space="preserve" text-anchor="middle" x="59.13" y="-58.6" font-family="Times,serif" font-size="14.00">id PK</text>
<text xml:space="preserve" text-anchor="middle" x="59.13" y="-41.8" font-family="Times,serif" font-size="14.00">user_id FK</text>
<text xml:space="preserve" text-anchor="middle" x="59.13" y="-25" font-family="Times,serif" font-size="14.00">student_number</text>
<text xml:space="preserve" text-anchor="middle" x="59.13" y="-8.2" font-family="Times,serif" font-size="14.00">program_id FK</text>
</g>
<!-- Students&#45;&gt;ScholarshipApplications -->
<g id="edge2" class="edge">
<title>Students-&gt;ScholarshipApplications</title>
<path fill="none" stroke="black" d="M112.51,-63.57C122.21,-66.82 132.58,-70.3 142.99,-73.79"/>
<polygon fill="black" stroke="black" points="141.79,-77.08 152.39,-76.94 144.02,-70.44 141.79,-77.08"/>
</g>
<!-- Admissions -->
<g id="node4" class="node">
<title>Admissions</title>
<path fill="#ffffff" stroke="black" d="M294.54,-340.4C294.54,-340.4 167.62,-340.4 167.62,-340.4 161.62,-340.4 155.62,-334.4 155.62,-328.4 155.62,-328.4 155.62,-243.6 155.62,-243.6 155.62,-237.6 161.62,-231.6 167.62,-231.6 167.62,-231.6 294.54,-231.6 294.54,-231.6 300.54,-231.6 306.54,-237.6 306.54,-243.6 306.54,-243.6 306.54,-328.4 306.54,-328.4 306.54,-334.4 300.54,-340.4 294.54,-340.4"/>
<text xml:space="preserve" text-anchor="middle" x="231.08" y="-323.8" font-family="Times,serif" font-size="14.00">Admissions</text>
<text xml:space="preserve" text-anchor="middle" x="231.08" y="-307" font-family="Times,serif" font-size="14.00">id PK</text>
<text xml:space="preserve" text-anchor="middle" x="231.08" y="-290.2" font-family="Times,serif" font-size="14.00">applicant_user_id FK</text>
<text xml:space="preserve" text-anchor="middle" x="231.08" y="-273.4" font-family="Times,serif" font-size="14.00">program_applied_id FK</text>
<text xml:space="preserve" text-anchor="middle" x="231.08" y="-256.6" font-family="Times,serif" font-size="14.00">status</text>
<text xml:space="preserve" text-anchor="middle" x="231.08" y="-239.8" font-family="Times,serif" font-size="14.00">applied_date</text>
</g>
<!-- Programs -->
<g id="node5" class="node">
<title>Programs</title>
<path fill="#ffffff" stroke="black" d="M106.26,-332C106.26,-332 12,-332 12,-332 6,-332 0,-326 0,-320 0,-320 0,-252 0,-252 0,-246 6,-240 12,-240 12,-240 106.26,-240 106.26,-240 112.26,-240 118.26,-246 118.26,-252 118.26,-252 118.26,-320 118.26,-320 118.26,-326 112.26,-332 106.26,-332"/>
<text xml:space="preserve" text-anchor="middle" x="59.13" y="-315.4" font-family="Times,serif" font-size="14.00">Programs</text>
<text xml:space="preserve" text-anchor="middle" x="59.13" y="-298.6" font-family="Times,serif" font-size="14.00">id PK</text>
<text xml:space="preserve" text-anchor="middle" x="59.13" y="-281.8" font-family="Times,serif" font-size="14.00">department_id FK</text>
<text xml:space="preserve" text-anchor="middle" x="59.13" y="-265" font-family="Times,serif" font-size="14.00">name</text>
<text xml:space="preserve" text-anchor="middle" x="59.13" y="-248.2" font-family="Times,serif" font-size="14.00">degree_level</text>
</g>
<!-- Programs&#45;&gt;Admissions -->
<g id="edge3" class="edge">
<title>Programs-&gt;Admissions</title>
<path fill="none" stroke="black" d="M118.62,-286C126.83,-286 135.41,-286 144,-286"/>
<polygon fill="black" stroke="black" points="143.76,-289.5 153.76,-286 143.76,-282.5 143.76,-289.5"/>
</g>
</g>
</svg>