<svg xmlns="http://www.w3.org/2000/svg" xmlns:xlink="http://www.w3.org/1999/xlink" width="290pt" height="260pt" viewBox="0.00 0.00 290.00 260.00">
<g id="graph0" class="graph" transform="scale(1 1) rotate(0) translate(4 256.2)">
<title>ER_Library</title>
<polygon fill="white" stroke="none" points="-4,4 -4,-256.2 286.21,-256.2 286.21,4 -4,4"/>
<!-- Books -->
<g id="node1" class="node">
<title>Books</title>
<path fill="#ffffff" stroke="black" d="M97.29,-252.2C97.29,-252.2 12,-252.2 12,-252.2 6,-252.2 0,-246.2 0,-240.2 0,-240.2 0,-121.8 0,-121.8 0,-115.8 6,-109.8 12,-109.8 12,-109.8 97.29,-109.8 97.29,-109.8 103.29,-109.8 109.29,-115.8 109.29,-121.8 109.29,-121.8 109.29,-240.2 109.29,-240.2 109.29,-246.2 103.29,-252.2 97.29,-252.2"/>
<text xml:space="preserve" text-anchor="middle" x="54.65" y="-235.6" font-family="Times,serif" font-size="14.00">Books</text>
<text xml:space="preserve" text-anchor="middle" x="54.65" y="-218.8" font-family="Times,serif" font-size="14.00">id PK</text>
<text xml:space="preserve" text-anchor="middle" x="54.65" y="-202" font-family="Times,serif" font-size="14.00">title</text>
<text xml:space="preserve" text-anchor="middle" x="54.65" y="-185.2" font-family="Times,serif" font-size="14.00">author</text>
<text xml:space="preserve" text-anchor="middle" x="54.65" y="-168.4" font-family="Times,serif" font-size="14.00">isbn</text>
<text xml:space="preserve" text-anchor="middle" x="54.65" y="-151.6" font-family="Times,serif" font-size="14.00">category</text>
<text xml:space="preserve" text-anchor="middle" x="54.65" y="-134.8" font-family="Times,serif" font-size="14.00">total_copies</text>
<text xml:space="preserve" text-anchor="middle" x="54.65" y="-118" font-family="Times,serif" font-size="14.00">available_copies</text>
</g>
<!-- BookLoans -->
<g id="node2" class="node">
<title>BookLoans</title>
<path fill="#ffffff" stroke="black" d="M270.21,-184.2C270.21,-184.2 157.29,-184.2 157.29,-184.2 151.29,-184.2 145.29,-178.2 145.29,-172.2 145.29,-172.2 145.29,-53.8 145.29,-53.8 145.29,-47.8 151.29,-41.8 157.29,-41.8 157.29,-41.8 270.21,-41.8 270.21,-41.8 276.21,-41.8 282.21,-47.8 282.21,-53.8 282.21,-53.8 282.21,-172.2 282.21,-172.2 282.21,-178.2 276.21,-184.2 270.21,-184.2"/>
<text xml:space="preserve" text-anchor="middle" x="213.75" y="-167.6" font-family="Times,serif" font-size="14.00">BookLoans</text>
<text xml:space="preserve" text-anchor="middle" x="213.75" y="-150.8" font-family="Times,serif" font-size="14.00">id PK</text>
<text xml:space="preserve" text-anchor="middle" x="213.75" y="-134" font-family="Times,serif" font-size="14.00">book_id FK</text>
<text xml:space="preserve" text-anchor="middle" x="213.75" y="-117.2" font-family="Times,serif" font-size="14.00">borrower_user_id FK</text>
<text xml:space="preserve" text-anchor="middle" x="213.75" y="-100.4" font-family="Times,serif" font-size="14.00">borrow_date</text>
<text xml:space="preserve" text-anchor="middle" x="213.75" y="-83.6" font-family="Times,serif" font-size="14.00">due_date</text>
<text xml:space="preserve" text-anchor="middle" x="213.75" y="-66.8" font-family="Times,serif" font-size="14.00">return_date</text>
<text xml:space="preserve" text-anchor="middle" x="213.75" y="-50" font-family="Times,serif" font-size="14.00">status</text>
</g>
<!-- Books&#45;&gt;BookLoans -->
<g id="edge1" class="edge">
<title>Books-&gt;BookLoans</title>
<path fill="none" stroke="black" d="M109.71,-157.6C117.7,-154.14 126.06,-150.52 134.42,-146.9"/>
<polygon fill="black" stroke="black" points="135.81,-150.12 143.59,-142.93 133.03,-143.69 135.81,-150.12"/>
</g>
<!-- Users -->
<g id="node3" class="node">
<title>Users</title>
<path fill="#ffffff" stroke="black" d="M77.47,-92C77.47,-92 31.82,-92 31.82,-92 25.82,-92 19.82,-86 19.82,-80 19.82,-80 19.82,-12 19.82,-12 19.82,-6 25.82,0 31.82,0 31.82,0 77.47,0 77.47,0 83.47,0 89.47,-6 89.47,-12 89.47,-12 89.47,-80 89.47,-80 89.47,-86 83.47,-92 77.47,-92"/>
<text xml:space="preserve" text-anchor="middle" x="54.65" y="-75.4" font-family="Times,serif" font-size="14.00">Users</text>
<text xml:space="preserve" text-anchor="middle" x="54.65" y="-58.6" font-family="Times,serif" font-size="14.00">id PK</text>
<text xml:space="preserve" text-anchor="middle" x="54.65" y="-41.8" font-family="Times,serif" font-size="14.00">username</text>
<text xml:space="preserve" text-anchor="middle" x="54.65" y="-25" font-family="Times,serif" font-size="14.00">email</text>
<text xml:space="preserve" text-anchor="middle" x="54.65" y="-8.2" font-family="Times,serif" font-size="14.00">role</text>
</g>
<!-- Users&#45;&gt;BookLoans -->
<g id="edge2" class="edge">
<title>Users-&gt;BookLoans</title>
<path fill="none" stroke="black" d="M89.73,-60.54C102.99,-66.19 118.75,-72.91 134.51,-79.63"/>
<polygon fill="black" stroke="black" points="132.86,-82.74 143.44,-83.44 135.61,-76.3 132.86,-82.74"/>
</g>
</g>
</svg>