<svg xmlns="http://www.w3.org/2000/svg" xmlns:xlink="http://www.w3.org/1999/xlink" width="256pt" height="117pt" viewBox="0.00 0.00 256.00 117.00">
<g id="graph0" class="graph" transform="scale(1 1) rotate(0) translate(4 112.8)">
<title>ER_Research</title>
<polygon fill="white" stroke="none" points="-4,4 -4,-112.8 252.41,-112.8 252.41,4 -4,4"/>
<!-- Faculty -->
<g id="node1" class="node">
<title>Faculty</title>
<path fill="#ffffff" stroke="black" d="M106.26,-100.4C106.26,-100.4 12,-100.4 12,-100.4 6,-100.4 0,-94.4 0,-88.4 0,-88.4 0,-20.4 0,-20.4 0,-14.4 6,-8.4 12,-8.4 12,-8.4 106.26,-8.4 106.26,-8.4 112.26,-8.4 118.26,-14.4 118.26,-20.4 118.26,-20.4 118.26,-88.4 118.26,-88.4 118.26,-94.4 112.26,-100.4 106.26,-100.4"/>
<text xml:space="preserve" text-anchor="middle" x="59.13" y="-83.8" font-family="Times,serif" font-size="14.00">Faculty</text>
<text xml:space="preserve" text-anchor="middle" x="59.13" y="-67" font-family="Times,serif" font-size="14.00">id PK</text>
<text xml:space="preserve" text-anchor="middle" x="59.13" y="-50.2" font-family="Times,serif" font-size="14.00">user_id FK</text>
<text xml:space="preserve" text-anchor="middle" x="59.13" y="-33.4" font-family="Times,serif" font-size="14.00">department_id FK</text>
<text xml:space="preserve" text-anchor="middle" x="59.13" y="-16.6" font-family="Times,serif" font-size="14.00">designation</text>
</g>
<!-- Publications -->
<g id="node2" class="node">
<title>Publications</title>
<path fill="#ffffff" stroke="black" d="M236.41,-108.8C236.41,-108.8 166.26,-108.8 166.26,-108.8 160.26,-108.8 154.26,-102.8 154.26,-96.8 154.26,-96.8 154.26,-12 154.26,-12 154.26,-6 160.26,0 166.26,0 166.26,0 236.41,0 236.41,0 242.41,0 248.41,-6 248.41,-12 248.41,-12 248.41,-96.8 248.41,-96.8 248.41,-102.8 242.41,-108.8 236.41,-108.8"/>
<text xml:space="preserve" text-anchor="middle" x="201.34" y="-92.2" font-family="Times,serif" font-size="14.00">Publications</text>
<text xml:space="preserve" text-anchor="middle" x="201.34" y="-75.4" font-family="Times,serif" font-size="14.00">id PK</text>
<text xml:space="preserve" text-anchor="middle" x="201.34" y="-58.6" font-family="Times,serif" font-size="14.00">faculty_id FK</text>
<text xml:space="preserve" text-anchor="middle" x="201.34" y="-41.8" font-family="Times,serif" font-size="14.00">title</text>
<text xml:space="preserve" text-anchor="middle" x="201.34" y="-25" font-family="Times,serif" font-size="14.00">published_in</text>
<text xml:space="preserve" text-anchor="middle" x="201.34" y="-8.2" font-family="Times,serif" font-size="14.00">year</text>
</g>
<!-- Faculty&#45;&gt;Publications -->
<g id="edge1" class="edge">
<title>Faculty-&gt;Publications</title>
<path fill="none" stroke="black" d="M118.37,-54.4C126.36,-54.4 134.56,-54.4 142.54,-54.4"/>
<polygon fill="black" stroke="black" points="142.51,-57.9 152.51,-54.4 142.51,-50.9 142.51,-57.9"/>
</g>
</g>
</svg>