<svg xmlns="http://www.w3.org/2000/svg" xmlns:xlink="http://www.w3.org/1999/xlink" width="795pt" height="327pt" viewBox="0.00 0.00 795.00 327.00">
<g id="graph0" class="graph" transform="scale(1 1) rotate(0) translate(4 323.2)">
<title>ER_Academics</title>
<polygon fill="white" stroke="none" points="-4,4 -4,-323.2 791.36,-323.2 791.36,4 -4,4"/>
<!-- Departments -->
<g id="node1" class="node">
<title>Departments</title>
<path fill="#ffffff" stroke="black" d="M136.95,-100.4C136.95,-100.4 12,-100.4 12,-100.4 6,-100.4 0,-94.4 0,-88.4 0,-88.4 0,-20.4 0,-20.4 0,-14.4 6,-8.4 12,-8.4 12,-8.4 136.95,-8.4 136.95,-8.4 142.95,-8.4 148.95,-14.4 148.95,-20.4 148.95,-20.4 148.95,-88.4 148.95,-88.4 148.95,-94.4 142.95,-100.4 136.95,-100.4"/>
<text xml:space="preserve" text-anchor="middle" x="74.48" y="-83.8" font-family="Times,serif" font-size="14.00">Departments</text>
<text xml:space="preserve" text-anchor="middle" x="74.48" y="-67" font-family="Times,serif" font-size="14.00">id PK</text>
<text xml:space="preserve" text-anchor="middle" x="74.48" y="-50.2" font-family="Times,serif" font-size="14.00">name</text>
<text xml:space="preserve" text-anchor="middle" x="74.48" y="-33.4" font-family="Times,serif" font-size="14.00">description</text>
<text xml:space="preserve" text-anchor="middle" x="74.48" y="-16.6" font-family="Times,serif" font-size="14.00">head_of_department_id</text>
</g>
<!-- Programs -->
<g id="node2" class="node">
<title>Programs</title>
<path fill="#ffffff" stroke="black" d="M291.21,-158.8C291.21,-158.8 196.95,-158.8 196.95,-158.8 190.95,-158.8 184.95,-152.8 184.95,-146.8 184.95,-146.8 184.95,-62 184.95,-62 184.95,-56 190.95,-50 196.95,-50 196.95,-50 291.21,-50 291.21,-50 297.21,-50 303.21,-56 303.21,-62 303.21,-62 303.21,-146.8 303.21,-146.8 303.21,-152.8 297.21,-158.8 291.21,-158.8"/>
<text xml:space="preserve" text-anchor="middle" x="244.08" y="-142.2" font-family="Times,serif" font-size="14.00">Programs</text>
<text xml:space="preserve" text-anchor="middle" x="244.08" y="-125.4" font-family="Times,serif" font-size="14.00">id PK</text>
<text xml:space="preserve" text-anchor="middle" x="244.08" y="-108.6" font-family="Times,serif" font-size="14.00">department_id FK</text>
<text xml:space="preserve" text-anchor="middle" x="244.08" y="-91.8" font-family="Times,serif" font-size="14.00">name</text>
<text xml:space="preserve" text-anchor="middle" x="244.08" y="-75" font-family="Times,serif" font-size="14.00">degree_level</text>
<text xml:space="preserve" text-anchor="middle" x="244.08" y="-58.2" font-family="Times,serif" font-size="14.00">duration_years</text>
</g>
<!-- Departments&#45;&gt;Programs -->
<g id="edge1" class="edge">
<title>Departments-&gt;Programs</title>
<path fill="none" stroke="black" d="M148.99,-76.33C157.15,-78.77 165.45,-81.24 173.56,-83.66"/>
<polygon fill="black" stroke="black" points="172.45,-86.98 183.03,-86.48 174.45,-80.27 172.45,-86.98"/>
</g>
<!-- Faculty -->
<g id="node3" class="node">
<title>Faculty</title>
<path fill="#ffffff" stroke="black" d="M765.25,-108.8C765.25,-108.8 670.99,-108.8 670.99,-108.8 664.99,-108.8 658.99,-102.8 658.99,-96.8 658.99,-96.8 658.99,-12 658.99,-12 658.99,-6 664.99,0 670.99,0 670.99,0 765.25,0 765.25,0 771.25,0 777.25,-6 777.25,-12 777.25,-12 777.25,-96.8 777.25,-96.8 777.25,-102.8 771.25,-108.8 765.25,-108.8"/>
<text xml:space="preserve" text-anchor="middle" x="718.12" y="-92.2" font-family="Times,serif" font-size="14.00">Faculty</text>
<text xml:space="preserve" text-anchor="middle" x="718.12" y="-75.4" font-family="Times,serif" font-size="14.00">id PK</text>
<text xml:space="preserve" text-anchor="middle" x="718.12" y="-58.6" font-family="Times,serif" font-size="14.00">user_id FK</text>
<text xml:space="preserve" text-anchor="middle" x="718.12" y="-41.8" font-family="Times,serif" font-size="14.00">department_id FK</text>
<text xml:space="preserve" text-anchor="middle" x="718.12" y="-25" font-family="Times,serif" font-size="14.00">designation</text>
<text xml:space="preserve" text-anchor="middle" x="718.12" y="-8.2" font-family="Times,serif" font-size="14.00">bio</text>
</g>
<!-- Departments&#45;&gt;Faculty -->
<g id="edge2" class="edge">
<title>Departments-&gt;Faculty</title>
<path fill="none" stroke="black" d="M149.31,-41.2C253.25,-24.68 448.41,-1.2 612.88,-24.4 624.32,-26.01 636.27,-28.58 647.83,-31.55"/>
<polygon fill="black" stroke="black" points="646.73,-34.87 657.29,-34.1 648.55,-28.12 646.73,-34.87"/>
</g>
<!-- Students -->
<g id="node4" class="node">
<title>Students</title>
<path fill="#ffffff" stroke="black" d="M587.27,-319.2C587.27,-319.2 503.53,-319.2 503.53,-319.2 497.53,-319.2 491.53,-313.2 491.53,-307.2 491.53,-307.2 491.53,-205.6 491.53,-205.6 491.53,-199.6 497.53,-193.6 503.53,-193.6 503.53,-193.6 587.27,-193.6 587.27,-193.6 593.27,-193.6 599.27,-199.6 599.27,-205.6 599.27,-205.6 599.27,-307.2 599.27,-307.2 599.27,-313.2 593.27,-319.2 587.27,-319.2"/>
<text xml:space="preserve" text-anchor="middle" x="545.4" y="-302.6" font-family="Times,serif" font-size="14.00">Students</text>
<text xml:space="preserve" text-anchor="middle" x="545.4" y="-285.8" font-family="Times,serif" font-size="14.00">id PK</text>
<text xml:space="preserve" text-anchor="middle" x="545.4" y="-269" font-family="Times,serif" font-size="14.00">user_id FK</text>
<text xml:space="preserve" text-anchor="middle" x="545.4" y="-252.2" font-family="Times,serif" font-size="14.00">student_number</text>
<text xml:space="preserve" text-anchor="middle" x="545.4" y="-235.4" font-family="Times,serif" font-size="14.00">program_id FK</text>
<text xml:space="preserve" text-anchor="middle" x="545.4" y="-218.6" font-family="Times,serif" font-size="14.00">enrollment_year</text>
<text xml:space="preserve" text-anchor="middle" x="545.4" y="-201.8" font-family="Times,serif" font-size="14.00">status</text>
</g>
<!-- Programs&#45;&gt;Students -->
<g id="edge4" class="edge">
<title>Programs-&gt;Students</title>
<path fill="none" stroke="black" d="M303.6,-153.14C315.02,-161.49 327.2,-169.64 339.21,-176.4 384.18,-201.69 438.75,-222.55 480.31,-236.62"/>
<polygon fill="black" stroke="black" points="479.1,-239.9 489.69,-239.75 481.31,-233.26 479.1,-239.9"/>
</g>
<!-- Courses -->
<g id="node5" class="node">
<title>Courses</title>
<path fill="#ffffff" stroke="black" d="M429.92,-167.2C429.92,-167.2 351.21,-167.2 351.21,-167.2 345.21,-167.2 339.21,-161.2 339.21,-155.2 339.21,-155.2 339.21,-53.6 339.21,-53.6 339.21,-47.6 345.21,-41.6 351.21,-41.6 351.21,-41.6 429.92,-41.6 429.92,-41.6 435.92,-41.6 441.92,-47.6 441.92,-53.6 441.92,-53.6 441.92,-155.2 441.92,-155.2 441.92,-161.2 435.92,-167.2 429.92,-167.2"/>
<text xml:space="preserve" text-anchor="middle" x="390.57" y="-150.6" font-family="Times,serif" font-size="14.00">Courses</text>
<text xml:space="preserve" text-anchor="middle" x="390.57" y="-133.8" font-family="Times,serif" font-size="14.00">id PK</text>
<text xml:space="preserve" text-anchor="middle" x="390.57" y="-117" font-family="Times,serif" font-size="14.00">program_id FK</text>
<text xml:space="preserve" text-anchor="middle" x="390.57" y="-100.2" font-family="Times,serif" font-size="14.00">code</text>
<text xml:space="preserve" text-anchor="middle" x="390.57" y="-83.4" font-family="Times,serif" font-size="14.00">title</text>
<text xml:space="preserve" text-anchor="middle" x="390.57" y="-66.6" font-family="Times,serif" font-size="14.00">credits</text>
<text xml:space="preserve" text-anchor="middle" x="390.57" y="-49.8" font-family="Times,serif" font-size="14.00">semester</text>
</g>
<!-- Programs&#45;&gt;Courses -->
<g id="edge3" class="edge">
<title>Programs-&gt;Courses</title>
<path fill="none" stroke="black" d="M303.43,-104.4C311.33,-104.4 319.45,-104.4 327.41,-104.4"/>
<polygon fill="black" stroke="black" points="327.39,-107.9 337.39,-104.4 327.39,-100.9 327.39,-107.9"/>
</g>
<!-- Enrollments -->
<g id="node7" class="node">
<title>Enrollments</title>
<path fill="#ffffff" stroke="black" d="M775.36,-272.8C775.36,-272.8 660.88,-272.8 660.88,-272.8 654.88,-272.8 648.88,-266.8 648.88,-260.8 648.88,-260.8 648.88,-176 648.88,-176 648.88,-170 654.88,-164 660.88,-164 660.88,-164 775.36,-164 775.36,-164 781.36,-164 787.36,-170 787.36,-176 787.36,-176 787.36,-260.8 787.36,-260.8 787.36,-266.8 781.36,-272.8 775.36,-272.8"/>
<text xml:space="preserve" text-anchor="middle" x="718.12" y="-256.2" font-family="Times,serif" font-size="14.00">Enrollments</text>
<text xml:space="preserve" text-anchor="middle" x="718.12" y="-239.4" font-family="Times,serif" font-size="14.00">id PK</text>
<text xml:space="preserve" text-anchor="middle" x="718.12" y="-222.6" font-family="Times,serif" font-size="14.00">student_id FK</text>
<text xml:space="preserve" text-anchor="middle" x="718.12" y="-205.8" font-family="Times,serif" font-size="14.00">course_section_id FK</text>
<text xml:space="preserve" text-anchor="middle" x="718.12" y="-189" font-family="Times,serif" font-size="14.00">grade</text>
<text xml:space="preserve" text-anchor="middle" x="718.12" y="-172.2" font-family="Times,serif" font-size="14.00">status</text>
</g>
<!-- Students&#45;&gt;Enrollments -->
<g id="edge8" class="edge">
<title>Students-&gt;Enrollments</title>
<path fill="none" stroke="black" d="M599.48,-244.58C611.52,-241.91 624.56,-239 637.43,-236.14"/>
<polygon fill="black" stroke="black" points="638.18,-239.56 647.18,-233.97 636.66,-232.72 638.18,-239.56"/>
</g>
<!-- CourseSections -->
<g id="node6" class="node">
<title>CourseSections</title>
<path fill="#ffffff" stroke="black" d="M600.88,-175.6C600.88,-175.6 489.92,-175.6 489.92,-175.6 483.92,-175.6 477.92,-169.6 477.92,-163.6 477.92,-163.6 477.92,-45.2 477.92,-45.2 477.92,-39.2 483.92,-33.2 489.92,-33.2 489.92,-33.2 600.88,-33.2 600.88,-33.2 606.88,-33.2 612.88,-39.2 612.88,-45.2 612.88,-45.2 612.88,-163.6 612.88,-163.6 612.88,-169.6 606.88,-175.6 600.88,-175.6"/>
<text xml:space="preserve" text-anchor="middle" x="545.4" y="-159" font-family="Times,serif" font-size="14.00">CourseSections</text>
<text xml:space="preserve" text-anchor="middle" x="545.4" y="-142.2" font-family="Times,serif" font-size="14.00">id PK</text>
<text xml:space="preserve" text-anchor="middle" x="545.4" y="-125.4" font-family="Times,serif" font-size="14.00">course_id FK</text>
<text xml:space="preserve" text-anchor="middle" x="545.4" y="-108.6" font-family="Times,serif" font-size="14.00">year</text>
<text xml:space="preserve" text-anchor="middle" x="545.4" y="-91.8" font-family="Times,serif" font-size="14.00">semester</text>
<text xml:space="preserve" text-anchor="middle" x="545.4" y="-75" font-family="Times,serif" font-size="14.00">faculty_in_charge_id</text>
<text xml:space="preserve" text-anchor="middle" x="545.4" y="-58.2" font-family="Times,serif" font-size="14.00">room</text>
<text xml:space="preserve" text-anchor="middle" x="545.4" y="-41.4" font-family="Times,serif" font-size="14.00">schedule</text>
</g>
<!-- Courses&#45;&gt;CourseSections -->
<g id="edge5" class="edge">
<title>Courses-&gt;CourseSections</title>
<path fill="none" stroke="black" d="M442.03,-104.4C449.87,-104.4 458.11,-104.4 466.38,-104.4"/>
<polygon fill="black" stroke="black" points="466.12,-107.9 476.12,-104.4 466.12,-100.9 466.12,-107.9"/>
</g>
<!-- CourseSections&#45;&gt;Faculty -->
<g id="edge6" class="edge">
<title>CourseSections-&gt;Faculty</title>
<path fill="none" stroke="black" d="M612.89,-84.93C624.32,-81.58 636.21,-78.1 647.71,-74.73"/>
<polygon fill="black" stroke="black" points="648.52,-78.14 657.13,-71.97 646.55,-71.42 648.52,-78.14"/>
</g>
<!-- CourseSections&#45;&gt;Enrollments -->
<g id="edge7" class="edge">
<title>CourseSections-&gt;Enrollments</title>
<path fill="none" stroke="black" d="M612.89,-148.8C621.49,-154.54 630.35,-160.46 639.11,-166.31"/>
<polygon fill="black" stroke="black" points="637.04,-169.13 647.3,-171.78 640.92,-163.31 637.04,-169.13"/>
</g>
</g>
</svg>