<?xml version="1.0" encoding="UTF-8" standalone="no"?>
<!DOCTYPE svg PUBLIC "-//W3C//DTD SVG 1.1//EN"
 "http://www.w3.org/Graphics/SVG/1.1/DTD/svg11.dtd">
<!-- Generated by graphviz version 2.43.0 (0)
 -->
<!-- Title: ER Pages: 1 -->
<svg width="1594pt" height="1012pt"
 viewBox="0.00 0.00 1594.00 1011.50" xmlns="http://www.w3.org/2000/svg" xmlns:xlink="http://www.w3.org/1999/xlink">
<g id="graph0" class="graph" transform="scale(1 1) rotate(0) translate(4 1007.5)">
<title>ER</title>
<polygon fill="white" stroke="transparent" points="-4,4 -4,-1007.5 1590,-1007.5 1590,4 -4,4"/>
<!-- Users -->
<g id="node1" class="node">
<title>Users</title>
<path fill="#ffffff" stroke="black" d="M1173,-886.5C1173,-886.5 1102,-886.5 1102,-886.5 1096,-886.5 1090,-880.5 1090,-874.5 1090,-874.5 1090,-790.5 1090,-790.5 1090,-784.5 1096,-778.5 1102,-778.5 1102,-778.5 1173,-778.5 1173,-778.5 1179,-778.5 1185,-784.5 1185,-790.5 1185,-790.5 1185,-874.5 1185,-874.5 1185,-880.5 1179,-886.5 1173,-886.5"/>
<text text-anchor="middle" x="1137.5" y="-874.5" font-family="Times,serif" font-size="10.00">Users</text>
<text text-anchor="middle" x="1137.5" y="-851.5" font-family="Times,serif" font-size="10.00">id PK</text>
<text text-anchor="middle" x="1137.5" y="-840.5" font-family="Times,serif" font-size="10.00">username</text>
<text text-anchor="middle" x="1137.5" y="-829.5" font-family="Times,serif" font-size="10.00">email</text>
<text text-anchor="middle" x="1137.5" y="-818.5" font-family="Times,serif" font-size="10.00">password_hash</text>
<text text-anchor="middle" x="1137.5" y="-807.5" font-family="Times,serif" font-size="10.00">role</text>
<text text-anchor="middle" x="1137.5" y="-796.5" font-family="Times,serif" font-size="10.00">is_active</text>
<text text-anchor="middle" x="1137.5" y="-785.5" font-family="Times,serif" font-size="10.00">date_joined</text>
</g>
<!-- Profiles -->
<g id="node2" class="node">
<title>Profiles</title>
<path fill="#ffffff" stroke="black" d="M1199.5,-760.5C1199.5,-760.5 1075.5,-760.5 1075.5,-760.5 1069.5,-760.5 1063.5,-754.5 1063.5,-748.5 1063.5,-748.5 1063.5,-642.5 1063.5,-642.5 1063.5,-636.5 1069.5,-630.5 1075.5,-630.5 1075.5,-630.5 1199.5,-630.5 1199.5,-630.5 1205.5,-630.5 1211.5,-636.5 1211.5,-642.5 1211.5,-642.5 1211.5,-748.5 1211.5,-748.5 1211.5,-754.5 1205.5,-760.5 1199.5,-760.5"/>
<text text-anchor="middle" x="1137.5" y="-748.5" font-family="Times,serif" font-size="10.00">Profiles</text>
<text text-anchor="middle" x="1137.5" y="-725.5" font-family="Times,serif" font-size="10.00">id PK</text>
<text text-anchor="middle" x="1137.5" y="-714.5" font-family="Times,serif" font-size="10.00">user_id FK : Users.id (1:1)</text>
<text text-anchor="middle" x="1137.5" y="-703.5" font-family="Times,serif" font-size="10.00">first_name</text>
<text text-anchor="middle" x="1137.5" y="-692.5" font-family="Times,serif" font-size="10.00">last_name</text>
<text text-anchor="middle" x="1137.5" y="-681.5" font-family="Times,serif" font-size="10.00">dob</text>
<text text-anchor="middle" x="1137.5" y="-670.5" font-family="Times,serif" font-size="10.00">gender</text>
<text text-anchor="middle" x="1137.5" y="-659.5" font-family="Times,serif" font-size="10.00">phone</text>
<text text-anchor="middle" x="1137.5" y="-648.5" font-family="Times,serif" font-size="10.00">address</text>
<text text-anchor="middle" x="1137.5" y="-637.5" font-family="Times,serif" font-size="10.00">profile_picture</text>
</g>
<!-- Users&#45;&gt;Profiles -->
<g id="edge1" class="edge">
<title>Users&#45;&gt;Profiles</title>
<path fill="none" stroke="black" d="M1137.5,-778.23C1137.5,-775.74 1137.5,-773.25 1137.5,-770.76"/>
<polygon fill="black" stroke="black" points="1141,-770.52 1137.5,-760.52 1134,-770.52 1141,-770.52"/>
</g>
<!-- Faculty -->
<g id="node5" class="node">
<title>Faculty</title>
<path fill="#ffffff" stroke="black" d="M1238,-190C1238,-190 1037,-190 1037,-190 1031,-190 1025,-184 1025,-178 1025,-178 1025,-105 1025,-105 1025,-99 1031,-93 1037,-93 1037,-93 1238,-93 1238,-93 1244,-93 1250,-99 1250,-105 1250,-105 1250,-178 1250,-178 1250,-184 1244,-190 1238,-190"/>
<text text-anchor="middle" x="1137.5" y="-178" font-family="Times,serif" font-size="10.00">Faculty</text>
<text text-anchor="middle" x="1137.5" y="-155" font-family="Times,serif" font-size="10.00">id PK</text>
<text text-anchor="middle" x="1137.5" y="-144" font-family="Times,serif" font-size="10.00">user_id FK : Users.id (1:1)</text>
<text text-anchor="middle" x="1137.5" y="-133" font-family="Times,serif" font-size="10.00">department_id FK : Departments.id (N:1)</text>
<text text-anchor="middle" x="1137.5" y="-122" font-family="Times,serif" font-size="10.00">designation</text>
<text text-anchor="middle" x="1137.5" y="-111" font-family="Times,serif" font-size="10.00">bio</text>
<text text-anchor="middle" x="1137.5" y="-100" font-family="Times,serif" font-size="10.00">office_room</text>
</g>
<!-- Users&#45;&gt;Faculty -->
<g id="edge3" class="edge">
<title>Users&#45;&gt;Faculty</title>
<path fill="none" stroke="black" d="M1089.83,-819.73C1060.34,-809.09 1024.83,-790.69 1007,-760.5 991.41,-734.09 991.02,-234.67 1007,-208.5 1010.1,-203.42 1013.73,-198.7 1017.76,-194.34"/>
<polygon fill="black" stroke="black" points="1020.22,-196.82 1024.89,-187.31 1015.31,-191.83 1020.22,-196.82"/>
</g>
<!-- Staff -->
<g id="node6" class="node">
<title>Staff</title>
<path fill="#ffffff" stroke="black" d="M1238,-75C1238,-75 1037,-75 1037,-75 1031,-75 1025,-69 1025,-63 1025,-63 1025,-12 1025,-12 1025,-6 1031,0 1037,0 1037,0 1238,0 1238,0 1244,0 1250,-6 1250,-12 1250,-12 1250,-63 1250,-63 1250,-69 1244,-75 1238,-75"/>
<text text-anchor="middle" x="1137.5" y="-63" font-family="Times,serif" font-size="10.00">Staff</text>
<text text-anchor="middle" x="1137.5" y="-40" font-family="Times,serif" font-size="10.00">id PK</text>
<text text-anchor="middle" x="1137.5" y="-29" font-family="Times,serif" font-size="10.00">user_id FK : Users.id (1:1)</text>
<text text-anchor="middle" x="1137.5" y="-18" font-family="Times,serif" font-size="10.00">department_id FK : Departments.id (N:1)</text>
<text text-anchor="middle" x="1137.5" y="-7" font-family="Times,serif" font-size="10.00">position</text>
</g>
<!-- Users&#45;&gt;Staff -->
<g id="edge4" class="edge">
<title>Users&#45;&gt;Staff</title>
<path fill="none" stroke="black" d="M1089.83,-819.73C1060.34,-809.09 1024.83,-790.69 1007,-760.5 988.13,-728.54 987.49,-124.07 1007,-92.5 1009.99,-87.66 1013.5,-83.25 1017.42,-79.23"/>
<polygon fill="black" stroke="black" points="1019.87,-81.73 1024.89,-72.4 1015.15,-76.56 1019.87,-81.73"/>
</g>
<!-- Students -->
<g id="node7" class="node">
<title>Students</title>
<path fill="#ffffff" stroke="black" d="M1221.5,-448C1221.5,-448 1053.5,-448 1053.5,-448 1047.5,-448 1041.5,-442 1041.5,-436 1041.5,-436 1041.5,-363 1041.5,-363 1041.5,-357 1047.5,-351 1053.5,-351 1053.5,-351 1221.5,-351 1221.5,-351 1227.5,-351 1233.5,-357 1233.5,-363 1233.5,-363 1233.5,-436 1233.5,-436 1233.5,-442 1227.5,-448 1221.5,-448"/>
<text text-anchor="middle" x="1137.5" y="-436" font-family="Times,serif" font-size="10.00">Students</text>
<text text-anchor="middle" x="1137.5" y="-413" font-family="Times,serif" font-size="10.00">id PK</text>
<text text-anchor="middle" x="1137.5" y="-402" font-family="Times,serif" font-size="10.00">user_id FK : Users.id (1:1)</text>
<text text-anchor="middle" x="1137.5" y="-391" font-family="Times,serif" font-size="10.00">student_number</text>
<text text-anchor="middle" x="1137.5" y="-380" font-family="Times,serif" font-size="10.00">program_id FK : Programs.id (N:1)</text>
<text text-anchor="middle" x="1137.5" y="-369" font-family="Times,serif" font-size="10.00">enrollment_year</text>
<text text-anchor="middle" x="1137.5" y="-358" font-family="Times,serif" font-size="10.00">status</text>
</g>
<!-- Users&#45;&gt;Students -->
<g id="edge2" class="edge">
<title>Users&#45;&gt;Students</title>
<path fill="none" stroke="black" d="M1089.83,-819.73C1060.34,-809.09 1024.83,-790.69 1007,-760.5 990.39,-732.37 989.97,-494.38 1007,-466.5 1013.65,-455.61 1022.7,-446.42 1032.95,-438.67"/>
<polygon fill="black" stroke="black" points="1035.21,-441.36 1041.4,-432.77 1031.2,-435.62 1035.21,-441.36"/>
</g>
<!-- Notices -->
<g id="node11" class="node">
<title>Notices</title>
<path fill="#ffffff" stroke="black" d="M1530,-877.5C1530,-877.5 1342,-877.5 1342,-877.5 1336,-877.5 1330,-871.5 1330,-865.5 1330,-865.5 1330,-803.5 1330,-803.5 1330,-797.5 1336,-791.5 1342,-791.5 1342,-791.5 1530,-791.5 1530,-791.5 1536,-791.5 1542,-797.5 1542,-803.5 1542,-803.5 1542,-865.5 1542,-865.5 1542,-871.5 1536,-877.5 1530,-877.5"/>
<text text-anchor="middle" x="1436" y="-865.5" font-family="Times,serif" font-size="10.00">Notices</text>
<text text-anchor="middle" x="1436" y="-842.5" font-family="Times,serif" font-size="10.00">id PK</text>
<text text-anchor="middle" x="1436" y="-831.5" font-family="Times,serif" font-size="10.00">title</text>
<text text-anchor="middle" x="1436" y="-820.5" font-family="Times,serif" font-size="10.00">content</text>
<text text-anchor="middle" x="1436" y="-809.5" font-family="Times,serif" font-size="10.00">created_by_user_id FK : Users.id (N:1)</text>
<text text-anchor="middle" x="1436" y="-798.5" font-family="Times,serif" font-size="10.00">published_date</text>
</g>
<!-- Users&#45;&gt;Notices -->
<g id="edge5" class="edge">
<title>Users&#45;&gt;Notices</title>
<path fill="none" stroke="black" d="M1185.15,-832.81C1221.24,-833.06 1272.8,-833.41 1319.71,-833.72"/>
<polygon fill="black" stroke="black" points="1319.94,-837.22 1329.96,-833.79 1319.98,-830.22 1319.94,-837.22"/>
</g>
<!-- Events -->
<g id="node12" class="node">
<title>Events</title>
<path fill="#ffffff" stroke="black" d="M1574,-1003.5C1574,-1003.5 1298,-1003.5 1298,-1003.5 1292,-1003.5 1286,-997.5 1286,-991.5 1286,-991.5 1286,-907.5 1286,-907.5 1286,-901.5 1292,-895.5 1298,-895.5 1298,-895.5 1574,-895.5 1574,-895.5 1580,-895.5 1586,-901.5 1586,-907.5 1586,-907.5 1586,-991.5 1586,-991.5 1586,-997.5 1580,-1003.5 1574,-1003.5"/>
<text text-anchor="middle" x="1436" y="-991.5" font-family="Times,serif" font-size="10.00">Events</text>
<text text-anchor="middle" x="1436" y="-968.5" font-family="Times,serif" font-size="10.00">id PK</text>
<text text-anchor="middle" x="1436" y="-957.5" font-family="Times,serif" font-size="10.00">title</text>
<text text-anchor="middle" x="1436" y="-946.5" font-family="Times,serif" font-size="10.00">description</text>
<text text-anchor="middle" x="1436" y="-935.5" font-family="Times,serif" font-size="10.00">date</text>
<text text-anchor="middle" x="1436" y="-924.5" font-family="Times,serif" font-size="10.00">location</text>
<text text-anchor="middle" x="1436" y="-913.5" font-family="Times,serif" font-size="10.00">organized_by_department_id FK : Departments.id (0..1)</text>
<text text-anchor="middle" x="1436" y="-902.5" font-family="Times,serif" font-size="10.00">organized_by_user_id FK : Users.id (0..1)</text>
</g>
<!-- Users&#45;&gt;Events -->
<g id="edge6" class="edge">
<title>Users&#45;&gt;Events</title>
<path fill="none" stroke="black" d="M1185.15,-850.91C1213.34,-862.03 1250.98,-876.88 1288.46,-891.68"/>
<polygon fill="black" stroke="black" points="1287.4,-895.02 1297.98,-895.43 1289.97,-888.51 1287.4,-895.02"/>
</g>
<!-- BookLoans -->
<g id="node14" class="node">
<title>BookLoans</title>
<path fill="#ffffff" stroke="black" d="M1525,-543.5C1525,-543.5 1347,-543.5 1347,-543.5 1341,-543.5 1335,-537.5 1335,-531.5 1335,-531.5 1335,-447.5 1335,-447.5 1335,-441.5 1341,-435.5 1347,-435.5 1347,-435.5 1525,-435.5 1525,-435.5 1531,-435.5 1537,-441.5 1537,-447.5 1537,-447.5 1537,-531.5 1537,-531.5 1537,-537.5 1531,-543.5 1525,-543.5"/>
<text text-anchor="middle" x="1436" y="-531.5" font-family="Times,serif" font-size="10.00">BookLoans</text>
<text text-anchor="middle" x="1436" y="-508.5" font-family="Times,serif" font-size="10.00">id PK</text>
<text text-anchor="middle" x="1436" y="-497.5" font-family="Times,serif" font-size="10.00">book_id FK : Books.id (N:1)</text>
<text text-anchor="middle" x="1436" y="-486.5" font-family="Times,serif" font-size="10.00">borrower_user_id FK : Users.id (N:1)</text>
<text text-anchor="middle" x="1436" y="-475.5" font-family="Times,serif" font-size="10.00">borrow_date</text>
<text text-anchor="middle" x="1436" y="-464.5" font-family="Times,serif" font-size="10.00">due_date</text>
<text text-anchor="middle" x="1436" y="-453.5" font-family="Times,serif" font-size="10.00">return_date</text>
<text text-anchor="middle" x="1436" y="-442.5" font-family="Times,serif" font-size="10.00">status</text>
</g>
<!-- Users&#45;&gt;BookLoans -->
<g id="edge7" class="edge">
<title>Users&#45;&gt;BookLoans</title>
<path fill="none" stroke="black" d="M1185.1,-817.18C1208.19,-807.2 1234.39,-791.82 1250,-769.5 1306.04,-689.39 1225.48,-629.27 1286,-552.5 1296.61,-539.04 1310.63,-528.42 1325.83,-520.05"/>
<polygon fill="black" stroke="black" points="1327.61,-523.06 1334.9,-515.37 1324.4,-516.84 1327.61,-523.06"/>
</g>
<!-- Feedback -->
<g id="node18" class="node">
<title>Feedback</title>
<path fill="#ffffff" stroke="black" d="M1536.5,-773.5C1536.5,-773.5 1335.5,-773.5 1335.5,-773.5 1329.5,-773.5 1323.5,-767.5 1323.5,-761.5 1323.5,-761.5 1323.5,-677.5 1323.5,-677.5 1323.5,-671.5 1329.5,-665.5 1335.5,-665.5 1335.5,-665.5 1536.5,-665.5 1536.5,-665.5 1542.5,-665.5 1548.5,-671.5 1548.5,-677.5 1548.5,-677.5 1548.5,-761.5 1548.5,-761.5 1548.5,-767.5 1542.5,-773.5 1536.5,-773.5"/>
<text text-anchor="middle" x="1436" y="-761.5" font-family="Times,serif" font-size="10.00">Feedback</text>
<text text-anchor="middle" x="1436" y="-738.5" font-family="Times,serif" font-size="10.00">id PK</text>
<text text-anchor="middle" x="1436" y="-727.5" font-family="Times,serif" font-size="10.00">submitted_by_user_id FK : Users.id (N:1)</text>
<text text-anchor="middle" x="1436" y="-716.5" font-family="Times,serif" font-size="10.00">category</text>
<text text-anchor="middle" x="1436" y="-705.5" font-family="Times,serif" font-size="10.00">description</text>
<text text-anchor="middle" x="1436" y="-694.5" font-family="Times,serif" font-size="10.00">status</text>
<text text-anchor="middle" x="1436" y="-683.5" font-family="Times,serif" font-size="10.00">assigned_to_user_id FK : Users.id (0..1)</text>
<text text-anchor="middle" x="1436" y="-672.5" font-family="Times,serif" font-size="10.00">created_at</text>
</g>
<!-- Users&#45;&gt;Feedback -->
<g id="edge8" class="edge">
<title>Users&#45;&gt;Feedback</title>
<path fill="none" stroke="black" d="M1185.15,-814.72C1219.72,-801.55 1268.47,-782.97 1313.75,-765.71"/>
<polygon fill="black" stroke="black" points="1315.25,-768.88 1323.35,-762.05 1312.76,-762.34 1315.25,-768.88"/>
</g>
<!-- Admissions -->
<g id="node19" class="node">
<title>Admissions</title>
<path fill="#ffffff" stroke="black" d="M1542,-647.5C1542,-647.5 1330,-647.5 1330,-647.5 1324,-647.5 1318,-641.5 1318,-635.5 1318,-635.5 1318,-573.5 1318,-573.5 1318,-567.5 1324,-561.5 1330,-561.5 1330,-561.5 1542,-561.5 1542,-561.5 1548,-561.5 1554,-567.5 1554,-573.5 1554,-573.5 1554,-635.5 1554,-635.5 1554,-641.5 1548,-647.5 1542,-647.5"/>
<text text-anchor="middle" x="1436" y="-635.5" font-family="Times,serif" font-size="10.00">Admissions</text>
<text text-anchor="middle" x="1436" y="-612.5" font-family="Times,serif" font-size="10.00">id PK</text>
<text text-anchor="middle" x="1436" y="-601.5" font-family="Times,serif" font-size="10.00">applicant_user_id FK : Users.id (N:1)</text>
<text text-anchor="middle" x="1436" y="-590.5" font-family="Times,serif" font-size="10.00">program_applied_id FK : Programs.id (N:1)</text>
<text text-anchor="middle" x="1436" y="-579.5" font-family="Times,serif" font-size="10.00">status</text>
<text text-anchor="middle" x="1436" y="-568.5" font-family="Times,serif" font-size="10.00">applied_date</text>
</g>
<!-- Users&#45;&gt;Admissions -->
<g id="edge9" class="edge">
<title>Users&#45;&gt;Admissions</title>
<path fill="none" stroke="black" d="M1185.22,-815.58C1207.62,-805.34 1233.17,-790.2 1250,-769.5 1283.24,-728.6 1249.24,-694.28 1286,-656.5 1292.88,-649.43 1300.77,-643.32 1309.25,-638.04"/>
<polygon fill="black" stroke="black" points="1311.01,-641.07 1317.91,-633.03 1307.5,-635.01 1311.01,-641.07"/>
</g>
<!-- Departments -->
<g id="node3" class="node">
<title>Departments</title>
<path fill="#ffffff" stroke="black" d="M228,-267C228,-267 12,-267 12,-267 6,-267 0,-261 0,-255 0,-255 0,-204 0,-204 0,-198 6,-192 12,-192 12,-192 228,-192 228,-192 234,-192 240,-198 240,-204 240,-204 240,-255 240,-255 240,-261 234,-267 228,-267"/>
<text text-anchor="middle" x="120" y="-255" font-family="Times,serif" font-size="10.00">Departments</text>
<text text-anchor="middle" x="120" y="-232" font-family="Times,serif" font-size="10.00">id PK</text>
<text text-anchor="middle" x="120" y="-221" font-family="Times,serif" font-size="10.00">name</text>
<text text-anchor="middle" x="120" y="-210" font-family="Times,serif" font-size="10.00">description</text>
<text text-anchor="middle" x="120" y="-199" font-family="Times,serif" font-size="10.00">head_of_department_id FK : Faculty.id (0..1)</text>
</g>
<!-- Programs -->
<g id="node4" class="node">
<title>Programs</title>
<path fill="#ffffff" stroke="black" d="M489,-401.5C489,-401.5 288,-401.5 288,-401.5 282,-401.5 276,-395.5 276,-389.5 276,-389.5 276,-327.5 276,-327.5 276,-321.5 282,-315.5 288,-315.5 288,-315.5 489,-315.5 489,-315.5 495,-315.5 501,-321.5 501,-327.5 501,-327.5 501,-389.5 501,-389.5 501,-395.5 495,-401.5 489,-401.5"/>
<text text-anchor="middle" x="388.5" y="-389.5" font-family="Times,serif" font-size="10.00">Programs</text>
<text text-anchor="middle" x="388.5" y="-366.5" font-family="Times,serif" font-size="10.00">id PK</text>
<text text-anchor="middle" x="388.5" y="-355.5" font-family="Times,serif" font-size="10.00">department_id FK : Departments.id (N:1)</text>
<text text-anchor="middle" x="388.5" y="-344.5" font-family="Times,serif" font-size="10.00">name</text>
<text text-anchor="middle" x="388.5" y="-333.5" font-family="Times,serif" font-size="10.00">degree_level</text>
<text text-anchor="middle" x="388.5" y="-322.5" font-family="Times,serif" font-size="10.00">duration_years</text>
</g>
<!-- Departments&#45;&gt;Programs -->
<g id="edge10" class="edge">
<title>Departments&#45;&gt;Programs</title>
<path fill="none" stroke="black" d="M198.8,-267.16C227.06,-280.84 259.38,-296.48 289.18,-310.91"/>
<polygon fill="black" stroke="black" points="287.82,-314.14 298.35,-315.35 290.87,-307.84 287.82,-314.14"/>
</g>
<!-- Departments&#45;&gt;Faculty -->
<g id="edge11" class="edge">
<title>Departments&#45;&gt;Faculty</title>
<path fill="none" stroke="black" d="M240.48,-219.15C435.14,-202.28 818.68,-169.04 1014.79,-152.05"/>
<polygon fill="black" stroke="black" points="1015.18,-155.53 1024.84,-151.18 1014.58,-148.55 1015.18,-155.53"/>
</g>
<!-- Departments&#45;&gt;Staff -->
<g id="edge12" class="edge">
<title>Departments&#45;&gt;Staff</title>
<path fill="none" stroke="black" d="M240.19,-201.2C252.27,-198.52 264.37,-195.9 276,-193.5 538.28,-139.3 847.67,-85.73 1014.72,-57.65"/>
<polygon fill="black" stroke="black" points="1015.49,-61.07 1024.77,-55.96 1014.33,-54.16 1015.49,-61.07"/>
</g>
<!-- Departments&#45;&gt;Events -->
<g id="edge13" class="edge">
<title>Departments&#45;&gt;Events</title>
<path fill="none" stroke="black" d="M128.82,-267.19C161.43,-412.79 300.67,-930.5 632,-930.5 632,-930.5 632,-930.5 878,-930.5 1012.06,-930.5 1164.16,-936.07 1275.51,-941.17"/>
<polygon fill="black" stroke="black" points="1275.66,-944.68 1285.81,-941.65 1275.99,-937.69 1275.66,-944.68"/>
</g>
<!-- Programs&#45;&gt;Students -->
<g id="edge15" class="edge">
<title>Programs&#45;&gt;Students</title>
<path fill="none" stroke="black" d="M501.28,-376.57C513.31,-378.1 525.4,-379.45 537,-380.5 709.58,-396.05 911.09,-399.41 1031.01,-399.86"/>
<polygon fill="black" stroke="black" points="1031.28,-403.36 1041.29,-399.89 1031.3,-396.36 1031.28,-403.36"/>
</g>
<!-- Courses -->
<g id="node8" class="node">
<title>Courses</title>
<path fill="#ffffff" stroke="black" d="M717,-371.5C717,-371.5 549,-371.5 549,-371.5 543,-371.5 537,-365.5 537,-359.5 537,-359.5 537,-275.5 537,-275.5 537,-269.5 543,-263.5 549,-263.5 549,-263.5 717,-263.5 717,-263.5 723,-263.5 729,-269.5 729,-275.5 729,-275.5 729,-359.5 729,-359.5 729,-365.5 723,-371.5 717,-371.5"/>
<text text-anchor="middle" x="633" y="-359.5" font-family="Times,serif" font-size="10.00">Courses</text>
<text text-anchor="middle" x="633" y="-336.5" font-family="Times,serif" font-size="10.00">id PK</text>
<text text-anchor="middle" x="633" y="-325.5" font-family="Times,serif" font-size="10.00">program_id FK : Programs.id (N:1)</text>
<text text-anchor="middle" x="633" y="-314.5" font-family="Times,serif" font-size="10.00">code</text>
<text text-anchor="middle" x="633" y="-303.5" font-family="Times,serif" font-size="10.00">title</text>
<text text-anchor="middle" x="633" y="-292.5" font-family="Times,serif" font-size="10.00">description</text>
<text text-anchor="middle" x="633" y="-281.5" font-family="Times,serif" font-size="10.00">credits</text>
<text text-anchor="middle" x="633" y="-270.5" font-family="Times,serif" font-size="10.00">semester</text>
</g>
<!-- Programs&#45;&gt;Courses -->
<g id="edge14" class="edge">
<title>Programs&#45;&gt;Courses</title>
<path fill="none" stroke="black" d="M501.17,-339.62C509.74,-338.17 518.39,-336.71 526.92,-335.27"/>
<polygon fill="black" stroke="black" points="527.6,-338.7 536.88,-333.58 526.43,-331.8 527.6,-338.7"/>
</g>
<!-- Programs&#45;&gt;Admissions -->
<g id="edge16" class="edge">
<title>Programs&#45;&gt;Admissions</title>
<path fill="none" stroke="black" d="M483.69,-401.58C605.67,-455.08 826.24,-544.09 1025,-583.5 1118.36,-602.01 1225.88,-606.92 1307.39,-607.39"/>
<polygon fill="black" stroke="black" points="1307.69,-610.89 1317.7,-607.42 1307.71,-603.89 1307.69,-610.89"/>
</g>
<!-- Publications -->
<g id="node15" class="node">
<title>Publications</title>
<path fill="#ffffff" stroke="black" d="M1508,-187C1508,-187 1364,-187 1364,-187 1358,-187 1352,-181 1352,-175 1352,-175 1352,-102 1352,-102 1352,-96 1358,-90 1364,-90 1364,-90 1508,-90 1508,-90 1514,-90 1520,-96 1520,-102 1520,-102 1520,-175 1520,-175 1520,-181 1514,-187 1508,-187"/>
<text text-anchor="middle" x="1436" y="-175" font-family="Times,serif" font-size="10.00">Publications</text>
<text text-anchor="middle" x="1436" y="-152" font-family="Times,serif" font-size="10.00">id PK</text>
<text text-anchor="middle" x="1436" y="-141" font-family="Times,serif" font-size="10.00">faculty_id FK : Faculty.id (N:1)</text>
<text text-anchor="middle" x="1436" y="-130" font-family="Times,serif" font-size="10.00">title</text>
<text text-anchor="middle" x="1436" y="-119" font-family="Times,serif" font-size="10.00">abstract</text>
<text text-anchor="middle" x="1436" y="-108" font-family="Times,serif" font-size="10.00">published_in</text>
<text text-anchor="middle" x="1436" y="-97" font-family="Times,serif" font-size="10.00">year</text>
</g>
<!-- Faculty&#45;&gt;Publications -->
<g id="edge22" class="edge">
<title>Faculty&#45;&gt;Publications</title>
<path fill="none" stroke="black" d="M1250.17,-140.37C1280.27,-140.07 1312.52,-139.74 1341.52,-139.45"/>
<polygon fill="black" stroke="black" points="1341.67,-142.94 1351.63,-139.34 1341.6,-135.94 1341.67,-142.94"/>
</g>
<!-- Enrollments -->
<g id="node10" class="node">
<title>Enrollments</title>
<path fill="#ffffff" stroke="black" d="M1550,-417C1550,-417 1322,-417 1322,-417 1316,-417 1310,-411 1310,-405 1310,-405 1310,-332 1310,-332 1310,-326 1316,-320 1322,-320 1322,-320 1550,-320 1550,-320 1556,-320 1562,-326 1562,-332 1562,-332 1562,-405 1562,-405 1562,-411 1556,-417 1550,-417"/>
<text text-anchor="middle" x="1436" y="-405" font-family="Times,serif" font-size="10.00">Enrollments</text>
<text text-anchor="middle" x="1436" y="-382" font-family="Times,serif" font-size="10.00">id PK</text>
<text text-anchor="middle" x="1436" y="-371" font-family="Times,serif" font-size="10.00">student_id FK : Students.id (N:1)</text>
<text text-anchor="middle" x="1436" y="-360" font-family="Times,serif" font-size="10.00">course_section_id FK : CourseSections.id (N:1)</text>
<text text-anchor="middle" x="1436" y="-349" font-family="Times,serif" font-size="10.00">enrolled_date</text>
<text text-anchor="middle" x="1436" y="-338" font-family="Times,serif" font-size="10.00">grade</text>
<text text-anchor="middle" x="1436" y="-327" font-family="Times,serif" font-size="10.00">status</text>
</g>
<!-- Students&#45;&gt;Enrollments -->
<g id="edge20" class="edge">
<title>Students&#45;&gt;Enrollments</title>
<path fill="none" stroke="black" d="M1233.54,-389.56C1254.62,-387.36 1277.35,-384.98 1299.69,-382.65"/>
<polygon fill="black" stroke="black" points="1300.33,-386.1 1309.92,-381.58 1299.61,-379.14 1300.33,-386.1"/>
</g>
<!-- Students&#45;&gt;BookLoans -->
<g id="edge25" class="edge">
<title>Students&#45;&gt;BookLoans</title>
<path fill="none" stroke="black" d="M1233.54,-428.35C1262.73,-437.21 1295.1,-447.03 1325.19,-456.17"/>
<polygon fill="black" stroke="black" points="1324.29,-459.55 1334.88,-459.11 1326.33,-452.86 1324.29,-459.55"/>
</g>
<!-- ScholarshipApplications -->
<g id="node17" class="node">
<title>ScholarshipApplications</title>
<path fill="#ffffff" stroke="black" d="M1535,-302C1535,-302 1337,-302 1337,-302 1331,-302 1325,-296 1325,-290 1325,-290 1325,-217 1325,-217 1325,-211 1331,-205 1337,-205 1337,-205 1535,-205 1535,-205 1541,-205 1547,-211 1547,-217 1547,-217 1547,-290 1547,-290 1547,-296 1541,-302 1535,-302"/>
<text text-anchor="middle" x="1436" y="-290" font-family="Times,serif" font-size="10.00">ScholarshipApplications</text>
<text text-anchor="middle" x="1436" y="-267" font-family="Times,serif" font-size="10.00">id PK</text>
<text text-anchor="middle" x="1436" y="-256" font-family="Times,serif" font-size="10.00">scholarship_id FK : Scholarships.id (N:1)</text>
<text text-anchor="middle" x="1436" y="-245" font-family="Times,serif" font-size="10.00">student_id FK : Students.id (N:1)</text>
<text text-anchor="middle" x="1436" y="-234" font-family="Times,serif" font-size="10.00">applied_date</text>
<text text-anchor="middle" x="1436" y="-223" font-family="Times,serif" font-size="10.00">status</text>
<text text-anchor="middle" x="1436" y="-212" font-family="Times,serif" font-size="10.00">awarded_amount</text>
</g>
<!-- Students&#45;&gt;ScholarshipApplications -->
<g id="edge24" class="edge">
<title>Students&#45;&gt;ScholarshipApplications</title>
<path fill="none" stroke="black" d="M1213.24,-350.89C1236.12,-336.98 1261.68,-322.37 1286,-310.5 1295.43,-305.9 1305.34,-301.4 1315.37,-297.1"/>
<polygon fill="black" stroke="black" points="1316.76,-300.31 1324.61,-293.19 1314.03,-293.86 1316.76,-300.31"/>
</g>
<!-- CourseSections -->
<g id="node9" class="node">
<title>CourseSections</title>
<path fill="#ffffff" stroke="black" d="M977,-371.5C977,-371.5 777,-371.5 777,-371.5 771,-371.5 765,-365.5 765,-359.5 765,-359.5 765,-275.5 765,-275.5 765,-269.5 771,-263.5 777,-263.5 777,-263.5 977,-263.5 977,-263.5 983,-263.5 989,-269.5 989,-275.5 989,-275.5 989,-359.5 989,-359.5 989,-365.5 983,-371.5 977,-371.5"/>
<text text-anchor="middle" x="877" y="-359.5" font-family="Times,serif" font-size="10.00">CourseSections</text>
<text text-anchor="middle" x="877" y="-336.5" font-family="Times,serif" font-size="10.00">id PK</text>
<text text-anchor="middle" x="877" y="-325.5" font-family="Times,serif" font-size="10.00">course_id FK : Courses.id (N:1)</text>
<text text-anchor="middle" x="877" y="-314.5" font-family="Times,serif" font-size="10.00">year</text>
<text text-anchor="middle" x="877" y="-303.5" font-family="Times,serif" font-size="10.00">semester</text>
<text text-anchor="middle" x="877" y="-292.5" font-family="Times,serif" font-size="10.00">faculty_in_charge_id FK : Faculty.id (N:1)</text>
<text text-anchor="middle" x="877" y="-281.5" font-family="Times,serif" font-size="10.00">room</text>
<text text-anchor="middle" x="877" y="-270.5" font-family="Times,serif" font-size="10.00">schedule</text>
</g>
<!-- Courses&#45;&gt;CourseSections -->
<g id="edge17" class="edge">
<title>Courses&#45;&gt;CourseSections</title>
<path fill="none" stroke="black" d="M729.3,-317.5C737.66,-317.5 746.2,-317.5 754.74,-317.5"/>
<polygon fill="black" stroke="black" points="754.76,-321 764.76,-317.5 754.76,-314 754.76,-321"/>
</g>
<!-- CourseSections&#45;&gt;Faculty -->
<g id="edge18" class="edge">
<title>CourseSections&#45;&gt;Faculty</title>
<path fill="none" stroke="black" d="M939.98,-263.26C965.46,-242.16 995.81,-218.54 1025,-199.5 1027.12,-198.12 1029.27,-196.74 1031.46,-195.37"/>
<polygon fill="black" stroke="black" points="1033.31,-198.35 1040.01,-190.15 1029.66,-192.37 1033.31,-198.35"/>
</g>
<!-- CourseSections&#45;&gt;Enrollments -->
<g id="edge19" class="edge">
<title>CourseSections&#45;&gt;Enrollments</title>
<path fill="none" stroke="black" d="M989.29,-322.34C1063.31,-326.13 1162.63,-332.32 1250,-341.5 1266.04,-343.19 1282.82,-345.23 1299.45,-347.44"/>
<polygon fill="black" stroke="black" points="1299.41,-350.96 1309.78,-348.83 1300.34,-344.03 1299.41,-350.96"/>
</g>
<!-- Books -->
<g id="node13" class="node">
<title>Books</title>
<path fill="#ffffff" stroke="black" d="M1175.5,-574.5C1175.5,-574.5 1099.5,-574.5 1099.5,-574.5 1093.5,-574.5 1087.5,-568.5 1087.5,-562.5 1087.5,-562.5 1087.5,-478.5 1087.5,-478.5 1087.5,-472.5 1093.5,-466.5 1099.5,-466.5 1099.5,-466.5 1175.5,-466.5 1175.5,-466.5 1181.5,-466.5 1187.5,-472.5 1187.5,-478.5 1187.5,-478.5 1187.5,-562.5 1187.5,-562.5 1187.5,-568.5 1181.5,-574.5 1175.5,-574.5"/>
<text text-anchor="middle" x="1137.5" y="-562.5" font-family="Times,serif" font-size="10.00">Books</text>
<text text-anchor="middle" x="1137.5" y="-539.5" font-family="Times,serif" font-size="10.00">id PK</text>
<text text-anchor="middle" x="1137.5" y="-528.5" font-family="Times,serif" font-size="10.00">title</text>
<text text-anchor="middle" x="1137.5" y="-517.5" font-family="Times,serif" font-size="10.00">author</text>
<text text-anchor="middle" x="1137.5" y="-506.5" font-family="Times,serif" font-size="10.00">isbn</text>
<text text-anchor="middle" x="1137.5" y="-495.5" font-family="Times,serif" font-size="10.00">category</text>
<text text-anchor="middle" x="1137.5" y="-484.5" font-family="Times,serif" font-size="10.00">total_copies</text>
<text text-anchor="middle" x="1137.5" y="-473.5" font-family="Times,serif" font-size="10.00">available_copies</text>
</g>
<!-- Books&#45;&gt;BookLoans -->
<g id="edge21" class="edge">
<title>Books&#45;&gt;BookLoans</title>
<path fill="none" stroke="black" d="M1187.79,-515.35C1225.07,-511.45 1277.72,-505.94 1324.85,-501.02"/>
<polygon fill="black" stroke="black" points="1325.24,-504.5 1334.82,-499.97 1324.51,-497.53 1325.24,-504.5"/>
</g>
<!-- Scholarships -->
<g id="node16" class="node">
<title>Scholarships</title>
<path fill="#ffffff" stroke="black" d="M1185,-294.5C1185,-294.5 1090,-294.5 1090,-294.5 1084,-294.5 1078,-288.5 1078,-282.5 1078,-282.5 1078,-220.5 1078,-220.5 1078,-214.5 1084,-208.5 1090,-208.5 1090,-208.5 1185,-208.5 1185,-208.5 1191,-208.5 1197,-214.5 1197,-220.5 1197,-220.5 1197,-282.5 1197,-282.5 1197,-288.5 1191,-294.5 1185,-294.5"/>
<text text-anchor="middle" x="1137.5" y="-282.5" font-family="Times,serif" font-size="10.00">Scholarships</text>
<text text-anchor="middle" x="1137.5" y="-259.5" font-family="Times,serif" font-size="10.00">id PK</text>
<text text-anchor="middle" x="1137.5" y="-248.5" font-family="Times,serif" font-size="10.00">title</text>
<text text-anchor="middle" x="1137.5" y="-237.5" font-family="Times,serif" font-size="10.00">eligibility_criteria</text>
<text text-anchor="middle" x="1137.5" y="-226.5" font-family="Times,serif" font-size="10.00">amount</text>
<text text-anchor="middle" x="1137.5" y="-215.5" font-family="Times,serif" font-size="10.00">dealine_or_deadline</text>
</g>
<!-- Scholarships&#45;&gt;ScholarshipApplications -->
<g id="edge23" class="edge">
<title>Scholarships&#45;&gt;ScholarshipApplications</title>
<path fill="none" stroke="black" d="M1197.08,-251.9C1230.68,-252.12 1274.14,-252.41 1314.7,-252.69"/>
<polygon fill="black" stroke="black" points="1314.91,-256.19 1324.94,-252.76 1314.96,-249.19 1314.91,-256.19"/>
</g>
</g>
</svg>
